<svg width="121" height="39" viewBox="0 0 121 39" fill="none" xmlns="http://www.w3.org/2000/svg">
<path d="M5.38762 30.0753L0.495605 14.9155H4.64453L8.20518 27.2634H8.76249L12.3231 14.9155H16.4721L11.58 30.0753H5.38762ZM25.6741 30.5032C24.1466 30.5032 22.7947 30.1874 21.6181 29.5557C20.4621 28.9037 19.5539 27.997 18.8934 26.8355C18.2535 25.6537 17.9336 24.2681 17.9336 22.6788V22.312C17.9336 20.7227 18.2535 19.3473 18.8934 18.1858C19.5332 17.004 20.4311 16.0973 21.5871 15.4656C22.743 14.8136 24.0847 14.4876 25.6122 14.4876C27.1189 14.4876 28.4298 14.8238 29.5444 15.4962C30.659 16.1482 31.526 17.0651 32.1452 18.247C32.7645 19.4084 33.0741 20.7634 33.0741 22.312V23.6263H21.8968C21.938 24.6655 22.3302 25.5111 23.0733 26.1631C23.8164 26.8151 24.7246 27.1412 25.798 27.1412C26.8919 27.1412 27.6969 26.9068 28.213 26.4382C28.729 25.9696 29.1212 25.45 29.3896 24.8794L32.5787 26.5299C32.2896 27.0596 31.8666 27.6403 31.3092 28.272C30.7725 28.8833 30.0501 29.4131 29.1419 29.8614C28.2336 30.2893 27.0777 30.5032 25.6741 30.5032ZM21.9277 20.7532H29.1109C29.0283 19.877 28.6671 19.174 28.0273 18.6443C27.408 18.1146 26.5926 17.8496 25.5812 17.8496C24.5285 17.8496 23.6926 18.1146 23.0733 18.6443C22.4541 19.174 22.0721 19.877 21.9277 20.7532ZM36.5464 30.0753V8.68034H40.4477V30.0753H36.5464ZM49.5389 30.5032C48.4449 30.5032 47.4644 30.3198 46.5975 29.9531C45.7305 29.5659 45.0391 29.0157 44.523 28.3026C44.0276 27.5691 43.7799 26.6827 43.7799 25.6435C43.7799 24.6043 44.0276 23.7384 44.523 23.0455C45.0391 22.3324 45.7408 21.8026 46.6284 21.4562C47.5366 21.0894 48.5688 20.906 49.7246 20.906H53.9355V20.0502C53.9355 19.3371 53.7085 18.7564 53.2543 18.3081C52.8002 17.8395 52.0778 17.6051 51.087 17.6051C50.1169 17.6051 49.3943 17.8292 48.9196 18.2775C48.4449 18.7054 48.1353 19.2657 47.9908 19.9586L44.3992 18.7665C44.6469 17.9923 45.0391 17.2893 45.5757 16.6576C46.133 16.0056 46.8658 15.486 47.774 15.0988C48.7029 14.6914 49.8278 14.4876 51.1489 14.4876C53.1717 14.4876 54.7715 14.9867 55.948 15.9852C57.1246 16.9837 57.7129 18.4303 57.7129 20.3253V25.9797C57.7129 26.591 58.0018 26.8966 58.5798 26.8966H59.8183V30.0753H57.2175C56.4537 30.0753 55.8242 29.8919 55.3288 29.5252C54.8334 29.1584 54.5857 28.6694 54.5857 28.0581V28.0275H53.9974C53.9148 28.272 53.729 28.5981 53.4401 29.0056C53.1512 29.3928 52.697 29.7391 52.0778 30.0448C51.4585 30.3504 50.6123 30.5032 49.5389 30.5032ZM50.22 27.3857C51.314 27.3857 52.2016 27.0902 52.8828 26.4993C53.5846 25.888 53.9355 25.0832 53.9355 24.0847V23.7791H50.0033C49.2809 23.7791 48.7132 23.9319 48.3004 24.2376C47.8876 24.5432 47.6811 24.9711 47.6811 25.5212C47.6811 26.0714 47.8979 26.5197 48.3313 26.8661C48.7648 27.2124 49.3943 27.3857 50.22 27.3857ZM62.6707 30.0753V14.9155H66.51V16.5659H67.0673C67.3357 16.0565 67.7794 15.6184 68.3987 15.2517C69.0179 14.8645 69.8333 14.6709 70.8447 14.6709C71.9387 14.6709 72.816 14.8849 73.4764 15.3128C74.137 15.7203 74.6427 16.2603 74.9936 16.9327H75.5509C75.9019 16.2807 76.3973 15.7407 77.0371 15.3128C77.677 14.8849 78.5852 14.6709 79.7617 14.6709C80.7113 14.6709 81.568 14.8747 82.3316 15.2822C83.1161 15.6694 83.7353 16.2704 84.1893 17.0855C84.6642 17.8802 84.9015 18.8888 84.9015 20.1114V30.0753H81.0002V20.3865C81.0002 19.5511 80.7835 18.9295 80.35 18.522C79.9166 18.0941 79.3077 17.8802 78.5233 17.8802C77.6358 17.8802 76.9442 18.1654 76.4488 18.736C75.9741 19.2861 75.7367 20.0808 75.7367 21.12V30.0753H71.8354V20.3865C71.8354 19.5511 71.6187 18.9295 71.1852 18.522C70.7518 18.0941 70.1429 17.8802 69.3585 17.8802C68.471 17.8802 67.7794 18.1654 67.284 18.736C66.8093 19.2861 66.5719 20.0808 66.5719 21.12V30.0753H62.6707ZM101.727 30.5032C100.633 30.5032 99.6526 30.3198 98.7856 29.9531C97.9187 29.5659 97.2272 29.0157 96.7112 28.3026C96.2158 27.5691 95.9681 26.6827 95.9681 25.6435C95.9681 24.6043 96.2158 23.7384 96.7112 23.0455C97.2272 22.3324 97.929 21.8026 98.8166 21.4562C99.7248 21.0894 100.757 20.906 101.913 20.906H106.124V20.0502C106.124 19.3371 105.897 18.7564 105.442 18.3081C104.988 17.8395 104.266 17.6051 103.275 17.6051C102.305 17.6051 101.582 17.8292 101.108 18.2775C100.633 18.7054 100.323 19.2657 100.179 19.9586L96.5873 18.7665C96.835 17.9923 97.2272 17.2893 97.7639 16.6576C98.3212 16.0056 99.054 15.486 99.9622 15.0988C100.891 14.6914 102.016 14.4876 103.337 14.4876C105.36 14.4876 106.96 14.9867 108.136 15.9852C109.313 16.9837 109.901 18.4303 109.901 20.3253V25.9797C109.901 26.591 110.19 26.8966 110.768 26.8966H112.006V30.0753H109.406C108.642 30.0753 108.012 29.8919 107.517 29.5252C107.022 29.1584 106.774 28.6694 106.774 28.0581V28.0275H106.186C106.103 28.272 105.917 28.5981 105.628 29.0056C105.339 29.3928 104.885 29.7391 104.266 30.0448C103.647 30.3504 102.8 30.5032 101.727 30.5032ZM102.408 27.3857C103.502 27.3857 104.39 27.0902 105.071 26.4993C105.773 25.888 106.124 25.0832 106.124 24.0847V23.7791H102.191C101.469 23.7791 100.901 23.9319 100.489 24.2376C100.076 24.5432 99.8693 24.9711 99.8693 25.5212C99.8693 26.0714 100.086 26.5197 100.52 26.8661C100.953 27.2124 101.582 27.3857 102.408 27.3857ZM114.859 30.0753V14.9155H118.76V30.0753H114.859ZM116.809 13.1427C116.108 13.1427 115.509 12.9186 115.014 12.4703C114.539 12.022 114.301 11.4311 114.301 10.6976C114.301 9.96404 114.539 9.37314 115.014 8.92486C115.509 8.47658 116.108 8.25244 116.809 8.25244C117.532 8.25244 118.131 8.47658 118.605 8.92486C119.08 9.37314 119.317 9.96404 119.317 10.6976C119.317 11.4311 119.08 12.022 118.605 12.4703C118.131 12.9186 117.532 13.1427 116.809 13.1427Z" fill="url(#paint0_linear_233_173)"/>
<path d="M93.3817 25.1851V30.0753H88.4277L93.3817 25.1851Z" fill="#F3E72A"/>
<defs>
<linearGradient id="paint0_linear_233_173" x1="34.108" y1="22.312" x2="90.2582" y2="23.5106" gradientUnits="userSpaceOnUse">
<stop stop-color="#8EF16F"/>
<stop offset="1" stop-color="#EEE34F"/>
</linearGradient>
</defs>
</svg>
